<?xml version="1.0" standalone="no"?>
<svg xmlns:xlink="http://www.w3.org/1999/xlink" id="wave" style="transform:rotate(180deg); transition: 0.3s" viewBox="0 0 1440 100" version="1.1" xmlns="http://www.w3.org/2000/svg"><defs><linearGradient id="sw-gradient-0" x1="0" x2="0" y1="1" y2="0"><stop stop-color="rgba(250, 236, 186, 1)" offset="0%"/><stop stop-color="rgba(250, 236, 186, 1)" offset="100%"/></linearGradient></defs><path style="transform:translate(0, 0px); opacity:1" fill="url(#sw-gradient-0)" d="M0,40L48,33.3C96,27,192,13,288,20C384,27,480,53,576,61.7C672,70,768,60,864,50C960,40,1056,30,1152,35C1248,40,1344,60,1440,66.7C1536,73,1632,67,1728,63.3C1824,60,1920,60,2016,51.7C2112,43,2208,27,2304,30C2400,33,2496,57,2592,60C2688,63,2784,47,2880,38.3C2976,30,3072,30,3168,33.3C3264,37,3360,43,3456,40C3552,37,3648,23,3744,28.3C3840,33,3936,57,4032,70C4128,83,4224,87,4320,86.7C4416,87,4512,83,4608,80C4704,77,4800,73,4896,66.7C4992,60,5088,50,5184,41.7C5280,33,5376,27,5472,26.7C5568,27,5664,33,5760,31.7C5856,30,5952,20,6048,23.3C6144,27,6240,43,6336,56.7C6432,70,6528,80,6624,73.3C6720,67,6816,43,6864,31.7L6912,20L6912,100L6864,100C6816,100,6720,100,6624,100C6528,100,6432,100,6336,100C6240,100,6144,100,6048,100C5952,100,5856,100,5760,100C5664,100,5568,100,5472,100C5376,100,5280,100,5184,100C5088,100,4992,100,4896,100C4800,100,4704,100,4608,100C4512,100,4416,100,4320,100C4224,100,4128,100,4032,100C3936,100,3840,100,3744,100C3648,100,3552,100,3456,100C3360,100,3264,100,3168,100C3072,100,2976,100,2880,100C2784,100,2688,100,2592,100C2496,100,2400,100,2304,100C2208,100,2112,100,2016,100C1920,100,1824,100,1728,100C1632,100,1536,100,1440,100C1344,100,1248,100,1152,100C1056,100,960,100,864,100C768,100,672,100,576,100C480,100,384,100,288,100C192,100,96,100,48,100L0,100Z"/></svg>